<?xml version="1.0" encoding="UTF-8" standalone="no"?>
<!DOCTYPE svg PUBLIC "-//W3C//DTD SVG 1.1//EN" "http://www.w3.org/Graphics/SVG/1.1/DTD/svg11.dtd">
<svg width="100%" height="100%" viewBox="0 0 237 237" version="1.1" xmlns="http://www.w3.org/2000/svg" xmlns:xlink="http://www.w3.org/1999/xlink" xml:space="preserve" xmlns:serif="http://www.serif.com/" style="fill-rule:evenodd;clip-rule:evenodd;stroke-linejoin:round;stroke-miterlimit:2;">
    <g transform="matrix(1.05242,0,0,1.18853,-29.0002,-45.0586)">
        <path d="M139.333,39.793C200.191,39.793 249.6,83.413 249.6,137.142C249.6,190.87 200.191,234.49 139.333,234.49C78.475,234.49 29.066,190.87 29.066,137.142C29.066,83.413 78.475,39.793 139.333,39.793ZM139.333,46.607C195.931,46.607 241.881,87.174 241.881,137.142C241.881,187.109 195.931,227.676 139.333,227.676C82.735,227.676 36.785,187.109 36.785,137.142C36.785,87.174 82.735,46.607 139.333,46.607Z" style="fill-opacity:0.93;"/>
    </g>
    <path d="M56.484,181.323C51.692,182.999 109.451,56.152 109.451,56.152C109.451,56.152 155.254,152.61 162.633,168.022" style="fill:none;"/>
    <g transform="matrix(0.998054,0,0,0.891937,-5.00405,20.2048)">
        <g transform="matrix(0.928287,-0.371864,0.371864,0.928287,-72.7743,29.3438)">
            <path d="M69.234,193.386L61.552,189.043L62.091,188.027L177.452,72.666L183.277,79.61L68.483,194.404L69.234,193.386Z"/>
        </g>
        <g transform="matrix(-0.928287,-0.371864,-0.371864,0.928287,318.802,29.3438)">
            <path d="M68.976,193.911L183.277,79.61C185.174,77.713 185.41,74.617 183.802,72.7C182.195,70.784 179.35,70.768 177.452,72.666L62.091,188.027L61.552,189.043C60.272,191.455 60.963,194.392 63.094,195.598C65.072,196.716 67.599,195.953 68.976,193.911Z"/>
        </g>
        <g transform="matrix(1,0,0,1,-118,0)">
            <path d="M171.825,190.7L169.61,188.222L169.61,183.266L171.825,180.788L180.515,180.788L182.73,183.266L182.73,188.222L180.515,190.7L171.825,190.7Z"/>
        </g>
        <g transform="matrix(1,0,0,1,-88,-68)">
            <path d="M169.825,190.7L167.61,188.222L167.61,183.266L169.825,180.788L252.515,180.788L254.73,183.266L254.73,188.222L252.515,190.7L169.825,190.7Z"/>
        </g>
        <g transform="matrix(1,0,0,1,11,0)">
            <path d="M171.825,190.7L169.61,188.222L169.61,183.266L171.825,180.788L180.515,180.788L182.73,183.266L182.73,188.222L180.515,190.7L171.825,190.7Z"/>
        </g>
    </g>
    <g transform="matrix(0.998054,0,0,-0.891937,-5.00405,216.531)">
        <g transform="matrix(0.928287,-0.371864,0.371864,0.928287,-72.7743,29.3438)">
            <path d="M69.234,193.386L68.483,194.404L183.277,79.61L177.452,72.666L62.091,188.027L61.552,189.043L69.234,193.386Z"/>
        </g>
        <g transform="matrix(-0.928287,-0.371864,-0.371864,0.928287,318.802,29.3438)">
            <path d="M68.976,193.911C67.599,195.953 65.072,196.716 63.094,195.598C60.963,194.392 60.272,191.455 61.552,189.043L62.091,188.027L177.452,72.666C179.35,70.768 182.195,70.784 183.802,72.7C185.41,74.617 185.174,77.713 183.277,79.61L68.976,193.911Z"/>
        </g>
        <g transform="matrix(1,0,0,1,-118,0)">
            <path d="M171.825,180.788L169.61,183.266L169.61,188.222L171.825,190.7L180.515,190.7L182.73,188.222L182.73,183.266L180.515,180.788L171.825,180.788Z"/>
        </g>
        <g transform="matrix(1,0,0,1,-88,-68)">
            <path d="M169.825,180.788L167.61,183.266L167.61,188.222L169.825,190.7L252.515,190.7L254.73,188.222L254.73,183.266L252.515,180.788L169.825,180.788Z"/>
        </g>
        <g transform="matrix(1,0,0,1,11,0)">
            <path d="M171.825,180.788L169.61,183.266L169.61,188.222L171.825,190.7L180.515,190.7L182.73,188.222L182.73,183.266L180.515,180.788L171.825,180.788Z"/>
        </g>
    </g>
</svg>
